# xmcd
#
# Track frame offsets:
#	150
#	15226
#	28812
#	43732
#	61168
#	78874
#	99967
#	115343
#	133403
#	149622
#	166221
#	181470
#	195339
#	212314
#	227843
#	244196
#	261669
#	283289
#	301821
#	321899
#	350336
#
# Disc length: 4704 seconds
#
# Revision: 2
# Processed by: cddbd v1.5.2PL0 Copyright (c) Steve Scherf et al.
# Submitted via: audiograbber 1.83.01
#
DISCID=2e125e15
DTITLE=Various Artist - 859
DYEAR=2001
DGENRE=Country
TTITLE0=Sherrie Austin - Jolene
TTITLE1=Lee Ann Womack - Lord I hope this day is good
TTITLE2=Forrester Sisters - Men
TTITLE3=Dixie Chicks - Ready to run
TTITLE4=DeAnna Carter - Strawberry Wine
TTITLE5=Faith Hill - That's how love moves
TTITLE6=Jo Dee Messina - That's the way it is
TTITLE7=Jamie O' Neal - There is no arizona
TTITLE8=Martina McBride - There you are
TTITLE9=Faith Hill - There You'll be
TTITLE10=Cyndi Thompson - What I really meant to say
TTITLE11=Jamie O' Neil - When I think about angels
TTITLE12=Jessica Andrews - Who I am
TTITLE13=Judds - Why not me
TTITLE14=Lee Ann Womack - Why they call it falling
TTITLE15=Dixie Chicks - Wide open spaces
TTITLE16=Shania Twain - Woman in me
TTITLE17=Patty Loveless - You don't even know who I am
TTITLE18=Judds - Young Love
TTITLE19=Shania Twain - You're still the one
TTITLE20=n/a - Data Track
EXTD=Karaoke
EXTT0=
EXTT1=
EXTT2=
EXTT3=
EXTT4=
EXTT5=
EXTT6=
EXTT7=
EXTT8=
EXTT9=
EXTT10=
EXTT11=
EXTT12=
EXTT13=
EXTT14=
EXTT15=
EXTT16=
EXTT17=
EXTT18=
EXTT19=
EXTT20=
PLAYORDER=
